<svg xmlns="http://www.w3.org/2000/svg" width="128" height="128" viewBox="0 0 128 128"><path fill="#4DA8EB" d="M55.511 94.271l-1.358 9.242c-2.62-.732-5.461-1.039-7.823-2.269-16.617-8.647-24.849-27.711-19.949-45.724 4.898-18.004 21.423-30.102 40.307-29.507 18.261.575 33.903 14.036 37.53 32.293 3.608 18.164-5.718 36.351-22.585 44.046-6.031 2.752-6.581 2.324-6.701-4.393-.084-4.564-.488-9.123-.791-14.383-.312.121.379-.249 1.112-.414 13.653-3.07 19.228-15.477 12.83-28.021-1.026-2.012-.813-4.72-.933-7.118-.264-5.367-1.93-6.953-6.282-4.357-8.331 4.97-17.343-.192-25.801 2.46-1.623.509-4.092-1.854-6.226-2.761-3.56-1.512-6.106-.719-5.816 3.582.29 4.281-1.083 7.889-2.557 11.815-4.088 10.892 2.025 21.573 13.241 24.234.95.227 1.901.445 4.403 1.029-2.454 2.433-4.281 5.681-6.008 5.629-2.869-.086-5.802-2.078-8.469-3.67-2.308-1.377-4.283-3.313-6.939-4.256 4.854 5.861 6.46 16.228 18.815 12.543z"/></svg>