<svg xmlns="http://www.w3.org/2000/svg" width="128" height="128" viewBox="0 0 128 128"><path fill-rule="evenodd" clip-rule="evenodd" fill="#5079D4" d="M55.511 94.271l-1.358 9.243c-2.62-.733-5.461-1.039-7.823-2.269-16.617-8.648-24.849-27.711-19.949-45.724 4.898-18.004 21.423-30.102 40.306-29.507 18.261.575 33.904 14.036 37.531 32.293 3.608 18.163-5.718 36.351-22.585 44.046-6.032 2.752-6.581 2.325-6.702-4.392-.083-4.564-.488-9.123-.79-14.383-.312.121.378-.249 1.112-.414 13.653-3.07 19.228-15.476 12.83-28.021-1.026-2.012-.813-4.72-.932-7.118-.264-5.367-1.931-6.953-6.283-4.357-8.331 4.97-17.343-.192-25.801 2.46-1.623.509-4.092-1.854-6.226-2.761-3.56-1.512-6.106-.719-5.816 3.582.29 4.281-1.083 7.889-2.557 11.815-4.088 10.892 2.025 21.573 13.241 24.234.95.226 1.901.445 4.403 1.03-2.454 2.432-4.281 5.68-6.008 5.628-2.869-.086-5.802-2.078-8.469-3.669-2.308-1.377-4.283-3.313-6.939-4.257 4.854 5.859 6.46 16.226 18.815 12.541z"/></svg>