<svg xmlns="http://www.w3.org/2000/svg" width="128" height="128" viewBox="0 0 128 128"><path fill="#4DA8EB" d="M87.898 102.824c0-8.643.006-16.79-.008-24.938-.002-1.663.055-3.344-.154-4.985-.766-5.992-3.822-9.033-8.793-8.896-5.188.144-8.957 4.127-9.026 9.934-.114 9.467-.03 18.938-.03 28.813h-16.786v-50.618h16.5l.609 6.013c4.18-5.48 9.146-7.745 15.102-7.75 10.854-.009 18.59 6.898 19.355 18.741.716 11.075.152 22.233.152 33.688-5.573-.002-10.953-.002-16.921-.002zM42.842 102.934h-16.462v-50.901h16.462v50.901zM34.976 26.857c5.559.094 9.243 3.647 9.226 8.898-.017 5.271-4.192 9.016-9.877 8.86-5.428-.149-9.333-3.927-9.298-8.998.035-5.243 4.14-8.858 9.949-8.76z"/></svg>