<svg xmlns="http://www.w3.org/2000/svg" width="128" height="128" viewBox="0 0 128 128"><path fill-rule="evenodd" clip-rule="evenodd" fill="#5079D4" d="M87.898 102.824c0-8.643.007-16.79-.007-24.938-.002-1.663.054-3.344-.155-4.986-.765-5.992-3.822-9.033-8.792-8.896-5.188.144-8.957 4.127-9.027 9.933-.114 9.468-.031 18.938-.031 28.813h-16.785v-50.618h16.5l.61 6.013c4.179-5.48 9.147-7.745 15.102-7.75 10.853-.009 18.59 6.898 19.355 18.741.716 11.075.153 22.233.153 33.688h-16.923zM42.842 102.934h-16.462v-50.902h16.462v50.902zM34.976 26.857c5.559.094 9.243 3.647 9.226 8.898-.017 5.271-4.192 9.016-9.877 8.86-5.428-.149-9.333-3.927-9.298-8.998.035-5.243 4.14-8.858 9.949-8.76z"/></svg>