<svg xmlns="http://www.w3.org/2000/svg" width="595" height="114.667" viewBox="0 0 595 114.667"><path fill="#97CB38" d="M0-.333h595v115h-595z"/><g fill="#fff"><path d="M57.863 72.089c0 6.049-4.176 10.226-10.225 10.226h-15.05c-6.048 0-10.225-4.177-10.225-10.226v-11.377h10.369v9.36c0 1.584.864 2.449 2.448 2.449h9.865c1.584 0 2.448-.865 2.448-2.449v-39.89h10.369v41.907zM94.798 29.894c6.048 0 10.225 4.176 10.225 10.225v31.971c0 6.049-4.176 10.226-10.225 10.226h-17.353c-6.049 0-10.225-4.177-10.225-10.226v-31.971c0-6.048 4.176-10.225 10.225-10.225h17.353zm-.144 12.241c0-1.584-.864-2.448-2.448-2.448h-12.169c-1.584 0-2.448.864-2.448 2.448v27.938c0 1.584.864 2.449 2.448 2.449h12.169c1.584 0 2.448-.865 2.448-2.449v-27.938zM115.171 30.182h10.369v20.45h17.857v-20.45h10.369v51.844h-10.369v-21.602h-17.857v21.602h-10.369v-51.844zM278.538 82.026v-17.929l-15.985-33.915h11.377l9.793 22.178 9.793-22.178h11.377l-15.986 33.915v17.929h-10.369zM337.219 30.182c6.049 0 10.225 4.177 10.225 10.225v7.345c0 3.096-1.225 5.833-4.537 7.777 3.602 1.728 5.113 4.68 5.113 7.776v8.497c0 6.049-4.176 10.225-10.225 10.225h-26.787v-51.845h26.211zm-2.592 20.738c1.871 0 2.447-.432 2.447-2.448v-6.193c0-1.584-.863-2.448-2.447-2.448h-13.25v11.089h13.25zm.576 21.457c1.584 0 2.447-.863 2.447-2.448v-7.489c0-2.16-1.295-2.304-3.313-2.304h-12.961v12.241h13.827zM391.65 30.182v9.793h-23.545v10.657h19.08v9.792h-19.08v11.809h23.545v9.793h-33.914v-51.844h33.914zM426.137 42.135c0-1.584-.863-2.448-2.447-2.448h-11.881c-1.584 0-2.449.864-2.449 2.448v27.938c0 1.584.865 2.449 2.449 2.449h11.881c1.584 0 2.447-.865 2.447-2.449v-7.704h-9.504v-9.361h19.873v19.082c0 6.049-4.176 10.226-10.225 10.226h-17.064c-6.049 0-10.225-4.177-10.225-10.226v-31.971c0-6.048 4.176-10.225 10.225-10.225h17.064c6.049 0 10.225 4.176 10.225 10.225v6.769h-10.369v-4.753zM566.895 30.182c6.049 0 10.227 4.177 10.227 10.225v31.395c0 6.049-4.178 10.225-10.227 10.225h-27.002v-51.845h27.002zm-2.592 42.051c1.584 0 2.449-.863 2.449-2.447v-27.363c0-1.584-.865-2.448-2.449-2.448h-14.041v32.258h14.041zM195 30.667v34.871l-5.159-9.912-4.379 10.689 8.478 15.352h11.06v-51zM184.313 45.272l-8.014-14.605h-11.299v51h10v-34.996l4.91 9.349zM246 30.667v34.871l-5.159-9.912-4.379 10.689 8.478 15.352h11.06v-51zM235.313 45.272l-8.014-14.605h-11.299v51h10v-34.996l4.91 9.349zM483 39.891c0-5.647-4.578-10.225-10.225-10.225h-17.551c-5.646 0-10.225 4.578-10.225 10.225v31.551c0 5.646 4.578 10.225 10.225 10.225h17.551c5.646 0 10.225-4.578 10.225-10.225v-31.551zm-24.969-.224h10.229l-12.26 25.651v-23.183c0-1.584.447-2.468 2.031-2.468zm12.17 33h-8.341l11.14-21.711v19.117c0 1.584-1.215 2.594-2.799 2.594zM530 39.891c0-5.647-4.578-10.225-10.225-10.225h-17.551c-5.646 0-10.225 4.578-10.225 10.225v31.551c0 5.646 4.578 10.225 10.225 10.225h17.551c5.646 0 10.225-4.578 10.225-10.225v-31.551zm-24.798-.224h10.229l-12.431 25.957v-23.183c0-1.584.618-2.774 2.202-2.774zm12.17 33h-8.341l10.969-21.405v19.117c0 1.584-1.044 2.288-2.628 2.288z"/></g></svg>