<svg xmlns="http://www.w3.org/2000/svg" width="1270" height="194.99" viewBox="0 0 1270 194.99"><path fill="#fff" d="M91.138 127.039c0 12.6-8.699 21.299-21.299 21.299h-31.348c-12.6 0-21.299-8.699-21.299-21.299v-23.699h21.599v19.499c0 3.3 1.8 5.101 5.1 5.101h20.55c3.3 0 5.1-1.801 5.1-5.101v-83.097h21.599v87.297zM168.088 39.143c12.6 0 21.3 8.7 21.3 21.299v66.598c0 12.6-8.7 21.299-21.3 21.299h-36.148c-12.6 0-21.299-8.699-21.299-21.299v-66.599c0-12.599 8.699-21.299 21.299-21.299h36.148zm-.299 25.499c0-3.3-1.8-5.1-5.1-5.1h-25.349c-3.301 0-5.101 1.8-5.101 5.1v58.197c0 3.3 1.8 5.101 5.101 5.101h25.349c3.3 0 5.1-1.801 5.1-5.101v-58.197zM210.539 39.742h21.599v42.599h37.199v-42.599h21.599v107.996h-21.599v-44.998h-37.199v44.998h-21.599v-107.996zM397.882 39.742v107.996h-23.249l-39.748-73.647v73.647h-20.249v-107.996h23.249l39.748 73.647v-73.647h20.249zM504.833 39.742v107.996h-23.249l-39.748-73.647v73.647h-20.249v-107.996h23.249l39.748 73.647v-73.647h20.249zM550.884 147.738v-37.348l-33.298-70.647h23.698l20.399 46.198 20.399-46.198h23.699l-33.299 70.647v37.349h-21.598z"/><g fill="#fff"><path d="M625.643 16.405v159h225v-159h-225zm107 110.034c0 12.6-8.811 20.966-21.41 20.966h-55.59v-108h54.39c12.6 0 21.61 9.037 21.61 21.637v15.299c0 6.45-2.65 12.149-9.549 16.2 7.5 3.6 10.549 9.749 10.549 16.199v17.699zm91-66.034h-49v22h39v20h-39v25h49v20h-71v-108h71v21zM704.033 102.405h-27.39v25h29.189c3.3 0 4.811-1.566 4.811-4.866v-15.6c0-4.499-2.41-4.534-6.61-4.534zM709.643 77.841v-12.9c0-3.3-1.71-5.536-5.01-5.536h-27.99v24h27.99c3.9 0 5.01-1.364 5.01-5.564z"/></g><path fill="#fff" d="M936.079 64.642c0-3.3-1.8-5.1-5.101-5.1h-24.749c-3.3 0-5.1 1.8-5.1 5.1v58.197c0 3.3 1.8 5.101 5.1 5.101h24.749c3.301 0 5.101-1.801 5.101-5.101v-16.049h-19.8v-19.499h41.398v39.748c0 12.6-8.699 21.299-21.299 21.299h-35.548c-12.6 0-21.299-8.699-21.299-21.299v-66.598c0-12.599 8.699-21.299 21.299-21.299h35.549c12.6 0 21.299 8.7 21.299 21.299v14.1h-21.599v-9.899zM1229.325 39.742c12.599 0 21.299 8.7 21.299 21.3v65.397c0 12.6-8.7 21.299-21.299 21.299h-56.248v-107.996h56.248zm-5.401 87.597c3.3 0 5.1-1.8 5.1-5.1v-56.998c0-3.3-1.8-5.1-5.1-5.1h-29.249v67.197h29.249zM1033.278 39.21c12.6 0 21.3 8.7 21.3 21.299v66.598c0 12.6-8.7 21.299-21.3 21.299h-36.148c-12.6 0-21.299-8.699-21.299-21.299v-66.598c0-12.599 8.699-21.299 21.299-21.299h36.148zm-.3 25.499c0-3.3-1.8-5.1-5.1-5.1h-25.349c-3.301 0-5.101 1.8-5.101 5.1v58.197c0 3.3 1.8 5.101 5.101 5.101h25.349c3.3 0 5.1-1.801 5.1-5.101v-58.197zM1130.716 41.308c12.6 0 21.3 8.7 21.3 21.299v66.598c0 12.6-8.7 21.299-21.3 21.299h-36.148c-12.6 0-21.299-8.699-21.299-21.299v-66.599c0-12.599 8.699-21.299 21.299-21.299h36.148zm-.299 25.499c0-3.3-1.8-5.1-5.1-5.1h-25.349c-3.301 0-5.101 1.8-5.101 5.1v58.197c0 3.3 1.8 5.101 5.101 5.101h25.349c3.3 0 5.1-1.801 5.1-5.101v-58.197z"/></svg>