<svg xmlns="http://www.w3.org/2000/svg" width="393.671" height="84.178" viewBox="0 0 393.671 84.178"><g fill="#97CB38"><text transform="translate(17.47 61.803)" font-family="'Bariol-Bold'" font-size="72" letter-spacing="-2">johnny</text><path d="M206.774 52.965c-2.837-2.407-2.119-4.104-1.603-6.049.776-2.924 4.177-4.439 7.207-3.638 3.976 1.053 5.306 6.231 3.292 9.39-2.454 3.848-8.1 4.097-11.907 1.296-3.843-2.828-3.99-8.602-3.699-12.904.387 1.748-2.792 7.029-1.023 13.901.676 2.629 2.231 5.198 4.69 6.445 4.539 2.303 10.628 1.787 14.374-1.752 2.659-2.513 3.482-5.068 3.925-8.676.459-3.731-1.323-8.473-4.449-10.752-2.332-1.7-5.004-2.258-8.669-1.396-.876.205 1.937-3.206 1.854-6.71-.189-8.016-3.77-13.086-11.525-15.722 5.667 5.185 3.993 14.872 3.675 21.952-.201 4.458-2.681 12.331 3.858 14.615z"/><text transform="translate(248.62 62.803)" font-family="'Bariol-Bold'" font-size="72" letter-spacing="-2">good</text><text transform="translate(219.102 61.803)" font-family="'Bariol-Bold'" font-size="48">e</text><text transform="translate(205.374 52.081)" font-family="'Bariol-Bold'" font-size="37.056" letter-spacing="-1">.</text></g></svg>