<svg xmlns="http://www.w3.org/2000/svg" width="128" height="128" viewBox="0 0 128 128"><path fill="#4DA8EB" d="M27.6 62.998c-.69-2.829-1.174-5.728-2.106-8.475-3.076-9.061-1.554-17.209 5.198-23.919 6.751-6.709 14.893-8.154 23.959-5.082 2.582.875 5.435 1.396 8.152 1.354 21.8-.341 38.732 16.654 38.347 38.481-.049 2.709.551 5.541 1.408 8.133 3.006 9.074 1.52 17.199-5.219 23.934-6.594 6.592-14.595 8.018-23.507 5.289-2.927-.896-6.065-1.574-9.104-1.556-21.294.134-38.129-16.688-37.128-38.159zm36.439 25.315c2.457-.367 4.957-.551 7.361-1.133 7.854-1.902 12.352-6.813 12.57-13.48.219-6.695-3.32-10.857-11.718-13.413-4.289-1.305-8.799-1.971-12.959-3.575-1.813-.699-4.44-3.413-4.143-4.534.507-1.913 2.791-4.2 4.753-4.718 5.133-1.354 9.909-.772 12.948 5.434 1.336 2.729 3.662 4.023 6.582 2.289 2.805-1.666 3.313-4.569 1.487-6.876-2.075-2.622-4.694-5.33-7.676-6.618-6.664-2.88-13.689-2.438-20.402.332-4.846 2-7.783 5.609-7.824 11.095-.04 5.333 2.9 8.779 7.51 10.741 3.188 1.357 6.625 2.139 9.962 3.136 2.385.713 5.067.91 7.103 2.171 1.749 1.082 3.814 3.338 3.821 5.082.006 1.793-1.929 4.255-3.683 5.272-5.994 3.479-12.58 1.205-15.962-5.033-.317-.586-.459-1.498-.936-1.723-1.917-.906-4.738-2.781-5.728-2.104-1.554 1.063-2.934 4.099-2.571 5.942 1.404 7.129 9.206 11.457 19.505 11.713z"/></svg>