<svg xmlns="http://www.w3.org/2000/svg" width="128" height="128" viewBox="0 0 128 128"><path fill-rule="evenodd" clip-rule="evenodd" fill="#fff" d="M27.512 91.453l20.805-6.063-.063-1.857c-6.444-1.278-11.38-4.378-14.027-11.049l5.723-.671c-6.789-3.521-11.28-7.943-11.616-15.753l6.167 1.134c-5.785-6.629-8.172-13.22-3.929-21.382 9.037 9.856 19.696 15.908 33.457 16.726 0-1.881-.092-3.348.014-4.801.833-11.343 13.102-19.094 22.921-13.483 5.481 3.132 9.669 3.198 15.332.817-1.449 2.191-2.898 4.382-4.716 7.129l5.998-1.005c.069.286.163.495.122.526-6.289 4.718-6.607 11.755-7.984 18.729-5.846 29.604-37.712 45.461-65.086 32.734-1.256-.584-2.429-1.345-3.118-1.731z"/></svg>