<?xml version="1.0" encoding="utf-8"?>
<!-- Generator: Adobe Illustrator 16.0.3, SVG Export Plug-In . SVG Version: 6.00 Build 0)  -->
<!DOCTYPE svg PUBLIC "-//W3C//DTD SVG 1.1//EN" "http://www.w3.org/Graphics/SVG/1.1/DTD/svg11.dtd">
<svg version="1.1" id="Layer_1" xmlns="http://www.w3.org/2000/svg" xmlns:xlink="http://www.w3.org/1999/xlink" x="0px" y="0px"
	 width="128px" height="128px" viewBox="0 0 128 128" enable-background="new 0 0 128 128" xml:space="preserve">
<path fill-rule="evenodd" clip-rule="evenodd" fill="#FFFFFF" d="M55.511,94.271c-0.572,3.895-0.965,6.569-1.358,9.243
	c-2.62-0.733-5.461-1.039-7.823-2.269c-16.617-8.648-24.849-27.711-19.949-45.724c4.898-18.004,21.423-30.102,40.306-29.507
	c18.261,0.575,33.904,14.036,37.531,32.293c3.608,18.163-5.718,36.351-22.585,44.046c-6.032,2.752-6.581,2.325-6.702-4.392
	c-0.083-4.564-0.488-9.123-0.79-14.383c-0.312,0.121,0.378-0.249,1.112-0.414c13.653-3.07,19.228-15.476,12.83-28.021
	c-1.026-2.012-0.813-4.72-0.932-7.118c-0.264-5.367-1.931-6.953-6.283-4.357c-8.331,4.97-17.343-0.192-25.801,2.46
	c-1.623,0.509-4.092-1.854-6.226-2.761c-3.56-1.512-6.106-0.719-5.816,3.582c0.29,4.281-1.083,7.889-2.557,11.815
	c-4.088,10.892,2.025,21.573,13.241,24.234c0.95,0.226,1.901,0.445,4.403,1.03c-2.454,2.432-4.281,5.68-6.008,5.628
	c-2.869-0.086-5.802-2.078-8.469-3.669c-2.308-1.377-4.283-3.313-6.939-4.257C41.55,87.589,43.156,97.956,55.511,94.271z"/>
</svg>
