<?xml version="1.0" encoding="utf-8"?>
<!-- Generator: Adobe Illustrator 16.0.3, SVG Export Plug-In . SVG Version: 6.00 Build 0)  -->
<!DOCTYPE svg PUBLIC "-//W3C//DTD SVG 1.1//EN" "http://www.w3.org/Graphics/SVG/1.1/DTD/svg11.dtd">
<svg version="1.1" id="Layer_1" xmlns="http://www.w3.org/2000/svg" xmlns:xlink="http://www.w3.org/1999/xlink" x="0px" y="0px"
	 width="128px" height="128px" viewBox="0 0 128 128" enable-background="new 0 0 128 128" xml:space="preserve">
<path fill="#4DA8EB" d="M55.511,94.271c-0.572,3.895-0.965,6.568-1.358,9.242c-2.62-0.732-5.461-1.039-7.823-2.269
	c-16.617-8.647-24.849-27.711-19.949-45.724c4.898-18.004,21.423-30.102,40.307-29.507c18.261,0.575,33.903,14.036,37.53,32.293
	c3.608,18.164-5.718,36.351-22.585,44.046c-6.031,2.752-6.581,2.324-6.701-4.393c-0.084-4.564-0.488-9.123-0.791-14.383
	c-0.312,0.121,0.379-0.249,1.112-0.414c13.653-3.07,19.228-15.477,12.83-28.021c-1.026-2.012-0.813-4.72-0.933-7.118
	c-0.264-5.367-1.93-6.953-6.282-4.357c-8.331,4.97-17.343-0.192-25.801,2.46c-1.623,0.509-4.092-1.854-6.226-2.761
	c-3.56-1.512-6.106-0.719-5.816,3.582c0.29,4.281-1.083,7.889-2.557,11.815c-4.088,10.892,2.025,21.573,13.241,24.234
	c0.95,0.227,1.901,0.445,4.403,1.029c-2.454,2.433-4.281,5.681-6.008,5.629c-2.869-0.086-5.802-2.078-8.469-3.67
	c-2.308-1.377-4.283-3.313-6.939-4.256C41.55,87.589,43.156,97.956,55.511,94.271z"/>
</svg>
