<?xml version="1.0" encoding="utf-8"?>
<!-- Generator: Adobe Illustrator 16.0.3, SVG Export Plug-In . SVG Version: 6.00 Build 0)  -->
<!DOCTYPE svg PUBLIC "-//W3C//DTD SVG 1.1//EN" "http://www.w3.org/Graphics/SVG/1.1/DTD/svg11.dtd">
<svg version="1.1" id="Layer_1" xmlns="http://www.w3.org/2000/svg" xmlns:xlink="http://www.w3.org/1999/xlink" x="0px" y="0px"
	 width="128px" height="128px" viewBox="0 0 128 128" enable-background="new 0 0 128 128" xml:space="preserve">
<path fill="#4DA8EB" d="M87.898,102.824c0-8.643,0.006-16.79-0.008-24.938c-0.002-1.663,0.055-3.344-0.154-4.985
	c-0.766-5.992-3.822-9.033-8.793-8.896c-5.188,0.144-8.957,4.127-9.026,9.934c-0.114,9.467-0.03,18.938-0.03,28.813
	c-5.69,0-11.063,0-16.786,0c0-16.727,0-33.457,0-50.618c5.319,0,10.701,0,16.5,0c0.162,1.599,0.334,3.29,0.609,6.013
	c4.18-5.48,9.146-7.745,15.102-7.75c10.854-0.009,18.59,6.898,19.355,18.741c0.716,11.075,0.152,22.233,0.152,33.688
	C99.246,102.824,93.866,102.824,87.898,102.824z"/>
<path fill="#4DA8EB" d="M42.842,102.934c-5.578,0-10.837,0-16.462,0c0-16.912,0-33.742,0-50.901c5.439,0,10.806,0,16.462,0
	C42.842,68.93,42.842,85.639,42.842,102.934z"/>
<path fill="#4DA8EB" d="M34.976,26.857c5.559,0.094,9.243,3.647,9.226,8.898c-0.017,5.271-4.192,9.016-9.877,8.86
	c-5.428-0.149-9.333-3.927-9.298-8.998C25.062,30.374,29.167,26.759,34.976,26.857z"/>
</svg>
