<?xml version="1.0" encoding="utf-8"?>
<!-- Generator: Adobe Illustrator 16.0.3, SVG Export Plug-In . SVG Version: 6.00 Build 0)  -->
<!DOCTYPE svg PUBLIC "-//W3C//DTD SVG 1.1//EN" "http://www.w3.org/Graphics/SVG/1.1/DTD/svg11.dtd">
<svg version="1.1" id="Layer_1" xmlns="http://www.w3.org/2000/svg" xmlns:xlink="http://www.w3.org/1999/xlink" x="0px" y="0px"
	 width="128px" height="128px" viewBox="0 0 128 128" enable-background="new 0 0 128 128" xml:space="preserve">
<path fill-rule="evenodd" clip-rule="evenodd" fill="#FFFFFF" d="M87.898,102.824c0-8.643,0.007-16.79-0.007-24.938
	c-0.002-1.663,0.054-3.344-0.155-4.986c-0.765-5.992-3.822-9.033-8.792-8.896c-5.188,0.144-8.957,4.127-9.027,9.933
	c-0.114,9.468-0.031,18.938-0.031,28.813c-5.689,0-11.062,0-16.785,0c0-16.727,0-33.457,0-50.618c5.319,0,10.701,0,16.5,0
	c0.162,1.599,0.334,3.29,0.61,6.013c4.179-5.48,9.147-7.745,15.102-7.75c10.853-0.009,18.59,6.898,19.355,18.741
	c0.716,11.075,0.153,22.233,0.153,33.688C99.246,102.824,93.866,102.824,87.898,102.824z"/>
<path fill-rule="evenodd" clip-rule="evenodd" fill="#FFFFFF" d="M42.842,102.934c-5.578,0-10.837,0-16.462,0
	c0-16.913,0-33.742,0-50.902c5.439,0,10.806,0,16.462,0C42.842,68.93,42.842,85.639,42.842,102.934z"/>
<path fill-rule="evenodd" clip-rule="evenodd" fill="#FFFFFF" d="M34.976,26.857c5.559,0.094,9.243,3.647,9.226,8.898
	c-0.017,5.271-4.192,9.016-9.877,8.86c-5.428-0.149-9.333-3.927-9.298-8.998C25.062,30.374,29.167,26.759,34.976,26.857z"/>
</svg>
