<?xml version="1.0" encoding="utf-8"?>
<!-- Generator: Adobe Illustrator 16.0.3, SVG Export Plug-In . SVG Version: 6.00 Build 0)  -->
<!DOCTYPE svg PUBLIC "-//W3C//DTD SVG 1.1//EN" "http://www.w3.org/Graphics/SVG/1.1/DTD/svg11.dtd">
<svg version="1.1" xmlns="http://www.w3.org/2000/svg" xmlns:xlink="http://www.w3.org/1999/xlink" x="0px" y="0px" width="595px"
	 height="114.667px" viewBox="0 0 595 114.667" enable-background="new 0 0 595 114.667" xml:space="preserve">
<g id="Layer_3">
	<rect y="-0.333" fill="#97CB38" width="595" height="115"/>
</g>
<g id="Layer_1">
	<path fill="#FFFFFF" d="M57.863,72.089c0,6.049-4.176,10.226-10.225,10.226H32.588c-6.048,0-10.225-4.177-10.225-10.226V60.712
		h10.369v9.36c0,1.584,0.864,2.449,2.448,2.449h9.865c1.584,0,2.448-0.865,2.448-2.449V30.182h10.369V72.089z"/>
	<path fill="#FFFFFF" d="M94.798,29.894c6.048,0,10.225,4.176,10.225,10.225v31.971c0,6.049-4.176,10.226-10.225,10.226H77.445
		c-6.049,0-10.225-4.177-10.225-10.226V40.119c0-6.048,4.176-10.225,10.225-10.225H94.798z M94.654,42.135
		c0-1.584-0.864-2.448-2.448-2.448H80.037c-1.584,0-2.448,0.864-2.448,2.448v27.938c0,1.584,0.864,2.449,2.448,2.449h12.169
		c1.584,0,2.448-0.865,2.448-2.449V42.135z"/>
	<path fill="#FFFFFF" d="M115.171,30.182h10.369v20.45h17.857v-20.45h10.369v51.844h-10.369V60.424H125.54v21.602h-10.369V30.182z"
		/>
	<path fill="#FFFFFF" d="M278.538,82.026V64.097l-15.985-33.915h11.377l9.793,22.178l9.793-22.178h11.377l-15.986,33.915v17.929
		H278.538z"/>
	<path fill="#FFFFFF" d="M337.219,30.182c6.049,0,10.225,4.177,10.225,10.225v7.345c0,3.096-1.225,5.833-4.537,7.777
		c3.602,1.728,5.113,4.68,5.113,7.776v8.497c0,6.049-4.176,10.225-10.225,10.225h-26.787V30.182H337.219z M334.627,50.92
		c1.871,0,2.447-0.432,2.447-2.448v-6.193c0-1.584-0.863-2.448-2.447-2.448h-13.25V50.92H334.627z M335.203,72.377
		c1.584,0,2.447-0.863,2.447-2.448V62.44c0-2.16-1.295-2.304-3.313-2.304h-12.961v12.241H335.203z"/>
	<path fill="#FFFFFF" d="M391.65,30.182v9.793h-23.545v10.657h19.08v9.792h-19.08v11.809h23.545v9.793h-33.914V30.182H391.65z"/>
	<path fill="#FFFFFF" d="M426.137,42.135c0-1.584-0.863-2.448-2.447-2.448h-11.881c-1.584,0-2.449,0.864-2.449,2.448v27.938
		c0,1.584,0.865,2.449,2.449,2.449h11.881c1.584,0,2.447-0.865,2.447-2.449v-7.704h-9.504v-9.361h19.873v19.082
		c0,6.049-4.176,10.226-10.225,10.226h-17.064c-6.049,0-10.225-4.177-10.225-10.226V40.119c0-6.048,4.176-10.225,10.225-10.225
		h17.064c6.049,0,10.225,4.176,10.225,10.225v6.769h-10.369V42.135z"/>
	<path fill="#FFFFFF" d="M566.895,30.182c6.049,0,10.227,4.177,10.227,10.225v31.395c0,6.049-4.178,10.225-10.227,10.225h-27.002
		V30.182H566.895z M564.303,72.233c1.584,0,2.449-0.863,2.449-2.447V42.423c0-1.584-0.865-2.448-2.449-2.448h-14.041v32.258H564.303
		z"/>
	<g>
		<polygon fill="#FFFFFF" points="195,30.667 195,65.538 189.841,55.626 185.462,66.315 193.94,81.667 205,81.667 205,30.667 		"/>
		<polygon fill="#FFFFFF" points="184.313,45.272 176.299,30.667 165,30.667 165,81.667 175,81.667 175,46.671 179.91,56.02 		"/>
	</g>
	<polygon fill="#FFFFFF" points="246,30.667 246,65.538 240.841,55.626 236.462,66.315 244.94,81.667 256,81.667 256,30.667 	"/>
	<polygon fill="#FFFFFF" points="235.313,45.272 227.299,30.667 216,30.667 216,81.667 226,81.667 226,46.671 230.91,56.02 	"/>
	<path fill="#FFFFFF" d="M483,39.891c0-5.647-4.578-10.225-10.225-10.225h-17.551c-5.646,0-10.225,4.578-10.225,10.225v31.551
		c0,5.646,4.578,10.225,10.225,10.225h17.551c5.646,0,10.225-4.578,10.225-10.225V39.891z M458.031,39.667h10.229L456,65.318V42.135
		C456,40.551,456.447,39.667,458.031,39.667z M470.201,72.667h-8.341L473,50.956v19.117C473,71.657,471.785,72.667,470.201,72.667z"
		/>
	<path fill="#FFFFFF" d="M530,39.891c0-5.647-4.578-10.225-10.225-10.225h-17.551c-5.646,0-10.225,4.578-10.225,10.225v31.551
		c0,5.646,4.578,10.225,10.225,10.225h17.551c5.646,0,10.225-4.578,10.225-10.225V39.891z M505.202,39.667h10.229L503,65.624V42.441
		C503,40.857,503.618,39.667,505.202,39.667z M517.372,72.667h-8.341L520,51.262v19.117C520,71.963,518.956,72.667,517.372,72.667z"
		/>
</g>
</svg>
