<?xml version="1.0" encoding="utf-8"?>
<!-- Generator: Adobe Illustrator 16.0.3, SVG Export Plug-In . SVG Version: 6.00 Build 0)  -->
<!DOCTYPE svg PUBLIC "-//W3C//DTD SVG 1.1//EN" "http://www.w3.org/Graphics/SVG/1.1/DTD/svg11.dtd">
<svg version="1.1" id="Layer_1" xmlns="http://www.w3.org/2000/svg" xmlns:xlink="http://www.w3.org/1999/xlink" x="0px" y="0px"
	 width="1270px" height="194.99px" viewBox="0 0 1270 194.99" enable-background="new 0 0 1270 194.99" xml:space="preserve">
<path fill="#FFFFFF" d="M91.138,127.039c0,12.6-8.699,21.299-21.299,21.299H38.491c-12.6,0-21.299-8.699-21.299-21.299V103.34
	h21.599v19.499c0,3.3,1.8,5.101,5.1,5.101h20.55c3.3,0,5.1-1.801,5.1-5.101V39.742h21.599V127.039z"/>
<path fill="#FFFFFF" d="M168.088,39.143c12.6,0,21.3,8.7,21.3,21.299v66.598c0,12.6-8.7,21.299-21.3,21.299H131.94
	c-12.6,0-21.299-8.699-21.299-21.299V60.441c0-12.599,8.699-21.299,21.299-21.299H168.088z M167.789,64.642c0-3.3-1.8-5.1-5.1-5.1
	H137.34c-3.301,0-5.101,1.8-5.101,5.1v58.197c0,3.3,1.8,5.101,5.101,5.101h25.349c3.3,0,5.1-1.801,5.1-5.101V64.642z"/>
<path fill="#FFFFFF" d="M210.539,39.742h21.599v42.599h37.199V39.742h21.599v107.996h-21.599V102.74h-37.199v44.998h-21.599V39.742z
	"/>
<path fill="#FFFFFF" d="M397.882,39.742v107.996h-23.249l-39.748-73.647v73.647h-20.249V39.742h23.249l39.748,73.647V39.742H397.882
	z"/>
<path fill="#FFFFFF" d="M504.833,39.742v107.996h-23.249l-39.748-73.647v73.647h-20.249V39.742h23.249l39.748,73.647V39.742H504.833
	z"/>
<path fill="#FFFFFF" d="M550.884,147.738V110.39l-33.298-70.647h23.698l20.399,46.198l20.399-46.198h23.699l-33.299,70.647v37.349
	H550.884z"/>
<g>
	<path fill="#FFFFFF" d="M625.643,16.405v159h225v-159H625.643z M732.643,126.439c0,12.6-8.811,20.966-21.41,20.966h-55.59v-108
		h54.39c12.6,0,21.61,9.037,21.61,21.637v15.299c0,6.45-2.65,12.149-9.549,16.2c7.5,3.6,10.549,9.749,10.549,16.199V126.439z
		 M823.643,60.405h-49v22h39v20h-39v25h49v20h-71v-108h71V60.405z"/>
	<path fill="#FFFFFF" d="M704.033,102.405h-27.39v25h29.189c3.3,0,4.811-1.566,4.811-4.866v-15.6
		C710.643,102.44,708.233,102.405,704.033,102.405z"/>
	<path fill="#FFFFFF" d="M709.643,77.841V64.941c0-3.3-1.71-5.536-5.01-5.536h-27.99v24h27.99
		C708.533,83.405,709.643,82.041,709.643,77.841z"/>
</g>
<path fill="#FFFFFF" d="M936.079,64.642c0-3.3-1.8-5.1-5.101-5.1h-24.749c-3.3,0-5.1,1.8-5.1,5.1v58.197c0,3.3,1.8,5.101,5.1,5.101
	h24.749c3.301,0,5.101-1.801,5.101-5.101V106.79h-19.8V87.291h41.398v39.748c0,12.6-8.699,21.299-21.299,21.299H900.83
	c-12.6,0-21.299-8.699-21.299-21.299V60.441c0-12.599,8.699-21.299,21.299-21.299h35.549c12.6,0,21.299,8.7,21.299,21.299v14.1
	h-21.599V64.642z"/>
<path fill="#FFFFFF" d="M1229.325,39.742c12.599,0,21.299,8.7,21.299,21.3v65.397c0,12.6-8.7,21.299-21.299,21.299h-56.248V39.742
	H1229.325z M1223.924,127.339c3.3,0,5.1-1.8,5.1-5.1V65.241c0-3.3-1.8-5.1-5.1-5.1h-29.249v67.197H1223.924z"/>
<path fill="#FFFFFF" d="M1033.278,39.21c12.6,0,21.3,8.7,21.3,21.299v66.598c0,12.6-8.7,21.299-21.3,21.299h-36.148
	c-12.6,0-21.299-8.699-21.299-21.299V60.509c0-12.599,8.699-21.299,21.299-21.299H1033.278z M1032.978,64.709c0-3.3-1.8-5.1-5.1-5.1
	h-25.349c-3.301,0-5.101,1.8-5.101,5.1v58.197c0,3.3,1.8,5.101,5.101,5.101h25.349c3.3,0,5.1-1.801,5.1-5.101V64.709z"/>
<path fill="#FFFFFF" d="M1130.716,41.308c12.6,0,21.3,8.7,21.3,21.299v66.598c0,12.6-8.7,21.299-21.3,21.299h-36.148
	c-12.6,0-21.299-8.699-21.299-21.299V62.606c0-12.599,8.699-21.299,21.299-21.299H1130.716z M1130.417,66.807c0-3.3-1.8-5.1-5.1-5.1
	h-25.349c-3.301,0-5.101,1.8-5.101,5.1v58.197c0,3.3,1.8,5.101,5.101,5.101h25.349c3.3,0,5.1-1.801,5.1-5.101V66.807z"/>
</svg>
