<?xml version="1.0" encoding="utf-8"?>
<!-- Generator: Adobe Illustrator 16.0.3, SVG Export Plug-In . SVG Version: 6.00 Build 0)  -->
<!DOCTYPE svg PUBLIC "-//W3C//DTD SVG 1.1//EN" "http://www.w3.org/Graphics/SVG/1.1/DTD/svg11.dtd">
<svg version="1.1" id="Layer_1" xmlns="http://www.w3.org/2000/svg" xmlns:xlink="http://www.w3.org/1999/xlink" x="0px" y="0px"
	 width="1270px" height="194.99px" viewBox="0 0 1270 194.99" enable-background="new 0 0 1270 194.99" xml:space="preserve">
<path fill="#4DA8EB" d="M91.138,127.039c0,12.601-8.699,21.299-21.299,21.299H38.491c-12.6,0-21.299-8.698-21.299-21.299V103.34
	h21.599v19.499c0,3.301,1.8,5.102,5.1,5.102h20.55c3.3,0,5.1-1.801,5.1-5.102V39.742H91.14v87.297H91.138z"/>
<path fill="#4DA8EB" d="M168.088,39.143c12.6,0,21.3,8.7,21.3,21.299v66.598c0,12.6-8.7,21.299-21.3,21.299H131.94
	c-12.6,0-21.299-8.699-21.299-21.299V60.441c0-12.599,8.699-21.299,21.299-21.299L168.088,39.143L168.088,39.143z M167.789,64.642
	c0-3.3-1.8-5.1-5.1-5.1H137.34c-3.301,0-5.101,1.8-5.101,5.1v58.197c0,3.301,1.8,5.102,5.101,5.102h25.349
	c3.3,0,5.1-1.801,5.1-5.102V64.642z"/>
<path fill="#4DA8EB" d="M210.539,39.742h21.599v42.599h37.199V39.742h21.599v107.995h-21.599V102.74h-37.199v44.997h-21.599V39.742z
	"/>
<path fill="#4DA8EB" d="M397.882,39.742v107.995h-23.249l-39.748-73.646v73.646h-20.249V39.742h23.249l39.748,73.647V39.742H397.882
	z"/>
<path fill="#4DA8EB" d="M504.833,39.742v107.995h-23.249l-39.748-73.646v73.646h-20.249V39.742h23.249l39.748,73.647V39.742H504.833
	z"/>
<path fill="#4DA8EB" d="M550.884,147.737V110.39l-33.298-70.646h23.698l20.398,46.198l20.399-46.198h23.699l-33.3,70.646v37.35
	h-21.598V147.737z"/>
<g>
	<path fill="#4DA8EB" d="M625.643,16.405v159h225v-159H625.643z M732.643,126.438c0,12.601-8.811,20.967-21.409,20.967h-55.591v-108
		h54.391c12.6,0,21.609,9.037,21.609,21.637v15.299c0,6.45-2.649,12.149-9.549,16.2c7.5,3.6,10.549,9.749,10.549,16.199V126.438z
		 M823.643,60.405h-49v22h39v20h-39v25h49v20h-71v-108h71V60.405z"/>
	<path fill="#4DA8EB" d="M704.033,102.405h-27.391v25h29.189c3.3,0,4.811-1.566,4.811-4.866v-15.601
		C710.643,102.44,708.233,102.405,704.033,102.405z"/>
	<path fill="#4DA8EB" d="M709.643,77.841v-12.9c0-3.3-1.71-5.536-5.01-5.536h-27.99v24h27.99
		C708.533,83.405,709.643,82.041,709.643,77.841z"/>
</g>
<path fill="#4DA8EB" d="M936.079,64.642c0-3.3-1.8-5.1-5.102-5.1h-24.749c-3.3,0-5.1,1.8-5.1,5.1v58.197
	c0,3.301,1.8,5.102,5.1,5.102h24.749c3.302,0,5.102-1.801,5.102-5.102V106.79h-19.8V87.291h41.397v39.748
	c0,12.601-8.699,21.299-21.299,21.299H900.83c-12.6,0-21.299-8.698-21.299-21.299V60.441c0-12.599,8.698-21.299,21.299-21.299
	h35.549c12.601,0,21.299,8.7,21.299,21.299v14.1h-21.599V64.642L936.079,64.642z"/>
<path fill="#4DA8EB" d="M1229.325,39.742c12.599,0,21.299,8.7,21.299,21.3v65.396c0,12.601-8.7,21.299-21.299,21.299h-56.248V39.742
	H1229.325z M1223.924,127.339c3.3,0,5.101-1.8,5.101-5.1V65.241c0-3.3-1.801-5.1-5.101-5.1h-29.249v67.197L1223.924,127.339
	L1223.924,127.339z"/>
<path fill="#4DA8EB" d="M1033.278,39.21c12.6,0,21.3,8.7,21.3,21.299v66.598c0,12.601-8.7,21.3-21.3,21.3H997.13
	c-12.6,0-21.299-8.699-21.299-21.3V60.509c0-12.599,8.699-21.299,21.299-21.299H1033.278z M1032.978,64.709c0-3.3-1.8-5.1-5.1-5.1
	h-25.349c-3.302,0-5.102,1.8-5.102,5.1v58.197c0,3.3,1.8,5.101,5.102,5.101h25.349c3.3,0,5.1-1.801,5.1-5.101V64.709z"/>
<path fill="#4DA8EB" d="M1130.716,41.308c12.6,0,21.3,8.7,21.3,21.299v66.598c0,12.601-8.699,21.299-21.3,21.299h-36.147
	c-12.601,0-21.3-8.698-21.3-21.299V62.606c0-12.599,8.699-21.299,21.3-21.299L1130.716,41.308L1130.716,41.308z M1130.417,66.807
	c0-3.3-1.8-5.1-5.1-5.1h-25.35c-3.301,0-5.101,1.8-5.101,5.1v58.197c0,3.3,1.8,5.101,5.101,5.101h25.35c3.3,0,5.1-1.801,5.1-5.101
	V66.807z"/>
</svg>
