<?xml version="1.0" encoding="utf-8"?>
<!-- Generator: Adobe Illustrator 16.0.3, SVG Export Plug-In . SVG Version: 6.00 Build 0)  -->
<!DOCTYPE svg PUBLIC "-//W3C//DTD SVG 1.1//EN" "http://www.w3.org/Graphics/SVG/1.1/DTD/svg11.dtd">

<svg version="1.1" id="Layer_1" xmlns="http://www.w3.org/2000/svg" xmlns:xlink="http://www.w3.org/1999/xlink" x="0px" y="0px"
	 width="393.671px" height="84.178px" viewBox="0 0 393.671 84.178" enable-background="new 0 0 393.671 84.178"
	 xml:space="preserve">
<g id="logo" fill="#FFFFFF">
	<g>
		
			<text transform="matrix(1 0 0 1 17.4702 61.8032)" font-family="'Bariol-Bold'" font-size="72" letter-spacing="-2">johnny</text>
	</g>
	<path fill="#FFFFFF" d="M206.774,52.965c-2.837-2.407-2.119-4.104-1.603-6.049c0.776-2.924,4.177-4.439,7.207-3.638
		c3.976,1.053,5.306,6.231,3.292,9.39c-2.454,3.848-8.1,4.097-11.907,1.296c-3.843-2.828-3.99-8.602-3.699-12.904
		c0.387,1.748-2.792,7.029-1.023,13.901c0.676,2.629,2.231,5.198,4.69,6.445c4.539,2.303,10.628,1.787,14.374-1.752
		c2.659-2.513,3.482-5.068,3.925-8.676c0.459-3.731-1.323-8.473-4.449-10.752c-2.332-1.7-5.004-2.258-8.669-1.396
		c-0.876,0.205,1.937-3.206,1.854-6.71c-0.189-8.016-3.77-13.086-11.525-15.722c5.667,5.185,3.993,14.872,3.675,21.952
		C202.715,42.808,200.235,50.681,206.774,52.965z"/>
	<g>
		
			<text transform="matrix(1 0 0 1 248.6196 62.8032)" font-family="'Bariol-Bold'" font-size="72" letter-spacing="-2">good</text>
	</g>
	<text transform="matrix(1 0 0 1 219.1016 61.8032)" font-family="'Bariol-Bold'" font-size="48">e</text>
	<g>
		
			<text transform="matrix(1 0 0 1 205.374 52.0815)" font-family="'Bariol-Bold'" font-size="37.0559" letter-spacing="-1">.</text>
	</g>
</g>
</svg>
