<?xml version="1.0" encoding="utf-8"?>
<!-- Generator: Adobe Illustrator 16.0.3, SVG Export Plug-In . SVG Version: 6.00 Build 0)  -->
<!DOCTYPE svg PUBLIC "-//W3C//DTD SVG 1.1//EN" "http://www.w3.org/Graphics/SVG/1.1/DTD/svg11.dtd">
<svg version="1.1" id="Layer_1" xmlns="http://www.w3.org/2000/svg" xmlns:xlink="http://www.w3.org/1999/xlink" x="0px" y="0px"
	 width="128px" height="128px" viewBox="0 0 128 128" enable-background="new 0 0 128 128" xml:space="preserve">
<path fill="#4DA8EB" d="M27.6,62.998c-0.69-2.829-1.174-5.728-2.106-8.475c-3.076-9.061-1.554-17.209,5.198-23.919
	c6.751-6.709,14.893-8.154,23.959-5.082c2.582,0.875,5.435,1.396,8.152,1.354c21.8-0.341,38.732,16.654,38.347,38.481
	c-0.049,2.709,0.551,5.541,1.408,8.133c3.006,9.074,1.52,17.199-5.219,23.934c-6.594,6.592-14.595,8.018-23.507,5.289
	c-2.927-0.896-6.065-1.574-9.104-1.556C43.434,101.291,26.599,84.469,27.6,62.998z M64.039,88.313
	c2.457-0.367,4.957-0.551,7.361-1.133c7.854-1.902,12.352-6.813,12.57-13.48c0.219-6.695-3.32-10.857-11.718-13.413
	c-4.289-1.305-8.799-1.971-12.959-3.575c-1.813-0.699-4.44-3.413-4.143-4.534c0.507-1.913,2.791-4.2,4.753-4.718
	c5.133-1.354,9.909-0.772,12.948,5.434c1.336,2.729,3.662,4.023,6.582,2.289c2.805-1.666,3.313-4.569,1.487-6.876
	c-2.075-2.622-4.694-5.33-7.676-6.618c-6.664-2.88-13.689-2.438-20.402,0.332c-4.846,2-7.783,5.609-7.824,11.095
	c-0.04,5.333,2.9,8.779,7.51,10.741c3.188,1.357,6.625,2.139,9.962,3.136c2.385,0.713,5.067,0.91,7.103,2.171
	c1.749,1.082,3.814,3.338,3.821,5.082c0.006,1.793-1.929,4.255-3.683,5.272c-5.994,3.479-12.58,1.205-15.962-5.033
	c-0.317-0.586-0.459-1.498-0.936-1.723c-1.917-0.906-4.738-2.781-5.728-2.104c-1.554,1.063-2.934,4.099-2.571,5.942
	C45.938,83.729,53.74,88.057,64.039,88.313z"/>
</svg>
