<?xml version="1.0" encoding="utf-8"?>
<!-- Generator: Adobe Illustrator 16.0.3, SVG Export Plug-In . SVG Version: 6.00 Build 0)  -->
<!DOCTYPE svg PUBLIC "-//W3C//DTD SVG 1.1//EN" "http://www.w3.org/Graphics/SVG/1.1/DTD/svg11.dtd">
<svg version="1.1" id="Layer_1" xmlns="http://www.w3.org/2000/svg" xmlns:xlink="http://www.w3.org/1999/xlink" x="0px" y="0px"
	 width="128px" height="128px" viewBox="0 0 128 128" enable-background="new 0 0 128 128" xml:space="preserve">
<path fill="#4DA8EB" d="M27.512,91.453c6.889-2.008,13.847-4.035,20.805-6.063c-0.021-0.619-0.042-1.238-0.063-1.857
	c-6.444-1.278-11.38-4.379-14.027-11.049c1.739-0.205,3.246-0.381,5.723-0.672c-6.789-3.521-11.28-7.942-11.616-15.752
	c1.938,0.356,3.618,0.665,6.167,1.134c-5.785-6.629-8.172-13.22-3.929-21.382c9.037,9.856,19.696,15.908,33.457,16.726
	c0-1.881-0.092-3.348,0.014-4.801c0.833-11.343,13.102-19.094,22.921-13.483c5.481,3.132,9.669,3.198,15.332,0.817
	c-1.448,2.191-2.897,4.382-4.716,7.129c2.175-0.365,4.098-0.687,5.998-1.005c0.068,0.286,0.163,0.495,0.122,0.526
	c-6.289,4.718-6.607,11.755-7.984,18.729C89.87,90.055,58.004,105.911,30.63,93.184C29.374,92.6,28.201,91.839,27.512,91.453z"/>
</svg>
